<svg width="24" height="24" viewBox="0 0 24 24" fill="none" xmlns="http://www.w3.org/2000/svg">
<path fill-rule="evenodd" clip-rule="evenodd" d="M13.6348 20.7272V12.766H16.3582L16.7668 9.66243H13.6348V7.68126C13.6348 6.78299 13.8881 6.17083 15.2029 6.17083L16.877 6.17015V3.39421C16.5875 3.35731 15.5937 3.27271 14.437 3.27271C12.0216 3.27271 10.368 4.71878 10.368 7.37389V9.66243H7.63635V12.766H10.368V20.7272H13.6348Z" fill="white"/>
<mask id="mask0_2_2588" style="mask-type:luminance" maskUnits="userSpaceOnUse" x="7" y="3" width="10" height="18">
<path fill-rule="evenodd" clip-rule="evenodd" d="M13.6348 20.7272V12.766H16.3582L16.7668 9.66243H13.6348V7.68126C13.6348 6.78299 13.8881 6.17083 15.2029 6.17083L16.877 6.17015V3.39421C16.5875 3.35731 15.5937 3.27271 14.437 3.27271C12.0216 3.27271 10.368 4.71878 10.368 7.37389V9.66243H7.63635V12.766H10.368V20.7272H13.6348Z" fill="white"/>
</mask>
<g mask="url(#mask0_2_2588)">
</g>
</svg>
