<svg width="24" height="24" viewBox="0 0 24 24" fill="none" xmlns="http://www.w3.org/2000/svg">
<path fill-rule="evenodd" clip-rule="evenodd" d="M7.60063 2.18188H16.3991C19.3873 2.18188 21.8183 4.61288 21.8182 7.60081V16.3993C21.8182 19.3873 19.3873 21.8182 16.3991 21.8182H7.60063C4.6127 21.8182 2.18182 19.3874 2.18182 16.3993V7.60081C2.18182 4.61288 4.6127 2.18188 7.60063 2.18188ZM16.3993 20.076C18.4266 20.076 20.0761 18.4267 20.0761 16.3993H20.076V7.60081C20.076 5.57355 18.4265 3.92412 16.3991 3.92412H7.60063C5.57337 3.92412 3.92406 5.57355 3.92406 7.60081V16.3993C3.92406 18.4267 5.57337 20.0761 7.60063 20.076H16.3993ZM6.85715 12.0002C6.85715 9.16431 9.16419 6.85721 12 6.85721C14.8358 6.85721 17.1429 9.16431 17.1429 12.0002C17.1429 14.8359 14.8358 17.1429 12 17.1429C9.16419 17.1429 6.85715 14.8359 6.85715 12.0002ZM8.62799 12.0001C8.62799 13.8594 10.1407 15.3719 12 15.3719C13.8593 15.3719 15.372 13.8594 15.372 12.0001C15.372 10.1406 13.8594 8.62797 12 8.62797C10.1406 8.62797 8.62799 10.1406 8.62799 12.0001Z" fill="white"/>
<mask id="mask0_2_2590" style="mask-type:luminance" maskUnits="userSpaceOnUse" x="2" y="2" width="20" height="20">
<path fill-rule="evenodd" clip-rule="evenodd" d="M7.60063 2.18188H16.3991C19.3873 2.18188 21.8183 4.61288 21.8182 7.60081V16.3993C21.8182 19.3873 19.3873 21.8182 16.3991 21.8182H7.60063C4.6127 21.8182 2.18182 19.3874 2.18182 16.3993V7.60081C2.18182 4.61288 4.6127 2.18188 7.60063 2.18188ZM16.3993 20.076C18.4266 20.076 20.0761 18.4267 20.0761 16.3993H20.076V7.60081C20.076 5.57355 18.4265 3.92412 16.3991 3.92412H7.60063C5.57337 3.92412 3.92406 5.57355 3.92406 7.60081V16.3993C3.92406 18.4267 5.57337 20.0761 7.60063 20.076H16.3993ZM6.85715 12.0002C6.85715 9.16431 9.16419 6.85721 12 6.85721C14.8358 6.85721 17.1429 9.16431 17.1429 12.0002C17.1429 14.8359 14.8358 17.1429 12 17.1429C9.16419 17.1429 6.85715 14.8359 6.85715 12.0002ZM8.62799 12.0001C8.62799 13.8594 10.1407 15.3719 12 15.3719C13.8593 15.3719 15.372 13.8594 15.372 12.0001C15.372 10.1406 13.8594 8.62797 12 8.62797C10.1406 8.62797 8.62799 10.1406 8.62799 12.0001Z" fill="white"/>
</mask>
<g mask="url(#mask0_2_2590)">
</g>
</svg>
