<svg width="24" height="28" viewBox="0 0 24 28" fill="none" xmlns="http://www.w3.org/2000/svg">
<path d="M20 3.97338C17.8783 1.85164 15.0006 0.659668 12 0.659668C8.99942 0.659668 6.12173 1.85164 4 3.97338C1.87827 6.09511 0.686295 8.9728 0.686295 11.9734C0.686295 14.974 1.87827 17.8516 4 19.9734L11.0267 27.0134C11.1506 27.1383 11.2981 27.2375 11.4606 27.3052C11.623 27.3729 11.7973 27.4078 11.9733 27.4078C12.1494 27.4078 12.3236 27.3729 12.4861 27.3052C12.6486 27.2375 12.7961 27.1383 12.92 27.0134L20 19.9067C22.1129 17.7938 23.2999 14.9281 23.2999 11.94C23.2999 8.95197 22.1129 6.08628 20 3.97338ZM18.0933 18L12 24.12L5.90667 18C4.70286 16.7951 3.8833 15.2604 3.5516 13.5898C3.21989 11.9192 3.39092 10.1877 4.04308 8.61428C4.69523 7.04086 5.79923 5.69611 7.21551 4.75001C8.63179 3.80392 10.2968 3.29895 12 3.29895C13.7032 3.29895 15.3682 3.80392 16.7845 4.75001C18.2008 5.69611 19.3048 7.04086 19.9569 8.61428C20.6091 10.1877 20.7801 11.9192 20.4484 13.5898C20.1167 15.2604 19.2971 16.7951 18.0933 18ZM8 7.88004C6.92362 8.95974 6.3192 10.4221 6.3192 11.9467C6.3192 13.4713 6.92362 14.9337 8 16.0134C8.79968 16.8144 9.81812 17.3615 10.9275 17.5859C12.037 17.8103 13.1879 17.7022 14.2361 17.2749C15.2843 16.8477 16.1829 16.1204 16.8193 15.1844C17.4557 14.2483 17.8015 13.1452 17.8133 12.0134C17.8193 11.2576 17.6738 10.5084 17.3852 9.80989C17.0966 9.1114 16.671 8.47785 16.1333 7.94671C15.6049 7.40615 14.9748 6.97543 14.2792 6.67933C13.5837 6.38323 12.8365 6.22761 12.0805 6.22141C11.3246 6.21522 10.5749 6.35857 9.87463 6.64323C9.17433 6.92788 8.53723 7.34822 8 7.88004ZM14.2533 14.12C13.7481 14.633 13.0803 14.9546 12.3642 15.0297C11.6481 15.1048 10.9281 14.9289 10.3273 14.5319C9.7266 14.135 9.2824 13.5417 9.07068 12.8535C8.85896 12.1653 8.89287 11.4249 9.16661 10.7589C9.44036 10.0929 9.93694 9.54273 10.5714 9.20236C11.206 8.86199 11.939 8.75259 12.6453 8.89287C13.3515 9.03314 13.9871 9.41439 14.4433 9.97142C14.8996 10.5284 15.1482 11.2267 15.1467 11.9467C15.1273 12.7697 14.782 13.5514 14.1867 14.12H14.2533Z" fill="#C73341"/>
</svg>
