<svg width="24" height="24" viewBox="0 0 24 24" fill="none" xmlns="http://www.w3.org/2000/svg">
<path fill-rule="evenodd" clip-rule="evenodd" d="M21.8181 6.14586C21.1356 6.44831 20.4032 6.65343 19.6337 6.74501C20.4194 6.2745 21.0208 5.52819 21.3059 4.64165C20.5689 5.07737 19.7553 5.39377 18.8885 5.56528C18.1943 4.82477 17.207 4.36353 16.1118 4.36353C14.0108 4.36353 12.3072 6.06707 12.3072 8.16695C12.3072 8.46477 12.3408 8.75565 12.4058 9.0338C9.24436 8.87501 6.44105 7.36037 4.56484 5.05883C4.23687 5.61974 4.0503 6.27331 4.0503 6.97098C4.0503 8.29095 4.72245 9.45562 5.74227 10.137C5.11878 10.1162 4.53239 9.94465 4.01902 9.65956V9.70707C4.01902 11.5497 5.33087 13.0875 7.07033 13.4375C6.75163 13.5233 6.41557 13.5708 6.0679 13.5708C5.82224 13.5708 5.58466 13.5464 5.35172 13.5001C5.83611 15.0124 7.24069 16.1122 8.90484 16.1423C7.60342 17.1621 5.96245 17.7682 4.18011 17.7682C3.87302 17.7682 3.57054 17.7497 3.27272 17.7161C4.95657 18.7973 6.95563 19.4277 9.10418 19.4277C16.1026 19.4277 19.9281 13.631 19.9281 8.60386L19.9153 8.11134C20.6628 7.57822 21.3094 6.9084 21.8181 6.14586Z" fill="white"/>
<mask id="mask0_2_2589" style="mask-type:luminance" maskUnits="userSpaceOnUse" x="3" y="4" width="19" height="16">
<path fill-rule="evenodd" clip-rule="evenodd" d="M21.8181 6.14586C21.1356 6.44831 20.4032 6.65343 19.6337 6.74501C20.4194 6.2745 21.0208 5.52819 21.3059 4.64165C20.5689 5.07737 19.7553 5.39377 18.8885 5.56528C18.1943 4.82477 17.207 4.36353 16.1118 4.36353C14.0108 4.36353 12.3072 6.06707 12.3072 8.16695C12.3072 8.46477 12.3408 8.75565 12.4058 9.0338C9.24436 8.87501 6.44105 7.36037 4.56484 5.05883C4.23687 5.61974 4.0503 6.27331 4.0503 6.97098C4.0503 8.29095 4.72245 9.45562 5.74227 10.137C5.11878 10.1162 4.53239 9.94465 4.01902 9.65956V9.70707C4.01902 11.5497 5.33087 13.0875 7.07033 13.4375C6.75163 13.5233 6.41557 13.5708 6.0679 13.5708C5.82224 13.5708 5.58466 13.5464 5.35172 13.5001C5.83611 15.0124 7.24069 16.1122 8.90484 16.1423C7.60342 17.1621 5.96245 17.7682 4.18011 17.7682C3.87302 17.7682 3.57054 17.7497 3.27272 17.7161C4.95657 18.7973 6.95563 19.4277 9.10418 19.4277C16.1026 19.4277 19.9281 13.631 19.9281 8.60386L19.9153 8.11134C20.6628 7.57822 21.3094 6.9084 21.8181 6.14586Z" fill="white"/>
</mask>
<g mask="url(#mask0_2_2589)">
</g>
</svg>
