<svg width="56" height="57" viewBox="0 0 56 57" fill="none" xmlns="http://www.w3.org/2000/svg">
<g clip-path="url(#clip0_1_337)">
<path d="M56 0.160034H0V56.16H56V0.160034Z" fill="#F2F1FF"/>
<path opacity="0.35" d="M38.8888 36.7156H17.111C14.5334 36.7156 12.4443 34.6265 12.4443 32.049V19.6045C12.4443 17.027 14.5334 14.9379 17.111 14.9379H38.8888C41.4663 14.9379 43.5554 17.027 43.5554 19.6045V32.049C43.5554 34.6265 41.4663 36.7156 38.8888 36.7156Z" fill="#4A3AFF"/>
<path d="M33.4444 36.7156C33.1706 36.7156 22.8293 36.7156 22.5555 36.7156C21.2675 36.7156 20.2222 37.7609 20.2222 39.0489C20.2222 40.3369 21.2675 41.3822 22.5555 41.3822C22.8293 41.3822 33.1706 41.3822 33.4444 41.3822C34.7324 41.3822 35.7777 40.3369 35.7777 39.0489C35.7777 37.7609 34.7324 36.7156 33.4444 36.7156Z" fill="#4A3AFF"/>
</g>
<defs>
<clipPath id="clip0_1_337">
<rect width="56" height="56" fill="white" transform="translate(0 0.160034)"/>
</clipPath>
</defs>
</svg>
