<svg width="56" height="57" viewBox="0 0 56 57" fill="none" xmlns="http://www.w3.org/2000/svg">
<g clip-path="url(#clip0_1_329)">
<path d="M56 0.160034H0V56.16H56V0.160034Z" fill="#F2F1FF"/>
<path opacity="0.35" d="M33.0908 42.16H22.909C20.8001 42.16 19.0908 40.4508 19.0908 38.3418V17.9782C19.0908 15.8693 20.8001 14.16 22.909 14.16H33.0908C35.1998 14.16 36.909 15.8693 36.909 17.9782V38.3418C36.909 40.4508 35.1998 42.16 33.0908 42.16Z" fill="#4A3AFF"/>
<path d="M28 39.6146C29.0543 39.6146 29.909 38.7599 29.909 37.7055C29.909 36.6512 29.0543 35.7964 28 35.7964C26.9455 35.7964 26.0908 36.6512 26.0908 37.7055C26.0908 38.7599 26.9455 39.6146 28 39.6146Z" fill="#4A3AFF"/>
</g>
<defs>
<clipPath id="clip0_1_329">
<rect width="56" height="56" fill="white" transform="translate(0 0.160034)"/>
</clipPath>
</defs>
</svg>
