<svg width="56" height="57" viewBox="0 0 56 57" fill="none" xmlns="http://www.w3.org/2000/svg">
<g clip-path="url(#clip0_1_346)">
<path d="M56 0.160034H0V56.16H56V0.160034Z" fill="#F2F1FF"/>
<path opacity="0.35" d="M28.0001 27.3822C31.4365 27.3822 34.2223 24.5964 34.2223 21.16C34.2223 17.7235 31.4365 14.9377 28.0001 14.9377C24.5636 14.9377 21.7778 17.7235 21.7778 21.16C21.7778 24.5964 24.5636 27.3822 28.0001 27.3822Z" fill="#4A3AFF"/>
<path opacity="0.35" d="M16.3332 30.4932C18.481 30.4932 20.2221 28.7521 20.2221 26.6043C20.2221 24.4566 18.481 22.7155 16.3332 22.7155C14.1855 22.7155 12.4443 24.4566 12.4443 26.6043C12.4443 28.7521 14.1855 30.4932 16.3332 30.4932Z" fill="#4A3AFF"/>
<path opacity="0.35" d="M39.6667 30.4932C41.8145 30.4932 43.5556 28.7521 43.5556 26.6043C43.5556 24.4566 41.8145 22.7155 39.6667 22.7155C37.519 22.7155 35.7778 24.4566 35.7778 26.6043C35.7778 28.7521 37.519 30.4932 39.6667 30.4932Z" fill="#4A3AFF"/>
<path d="M32.6667 41.3822H23.3334C20.7559 41.3822 18.6667 38.9446 18.6667 35.9377C18.6667 32.9308 20.7559 30.4933 23.3334 30.4933H32.6667C35.2443 30.4933 37.3334 32.9308 37.3334 35.9377C37.3334 38.9446 35.2443 41.3822 32.6667 41.3822Z" fill="#4A3AFF"/>
<path opacity="0.35" d="M42.857 33.6044H13.023C10.9853 33.6044 9.33325 35.2564 9.33325 37.2941V37.6939C9.33325 39.7301 10.9853 41.3821 13.023 41.3821H42.857C44.9601 41.3821 46.6666 39.6757 46.6666 37.571V37.4139C46.6666 35.3108 44.9601 33.6044 42.857 33.6044Z" fill="#4A3AFF"/>
</g>
<defs>
<clipPath id="clip0_1_346">
<rect width="56" height="56" fill="white" transform="translate(0 0.160034)"/>
</clipPath>
</defs>
</svg>
